<svg xmlns="http://www.w3.org/2000/svg" version="1.2" viewBox="0 0 26 25" width="26" height="25">
	<title>Add User (3)-svg</title>
	<defs>
		<clipPath clipPathUnits="userSpaceOnUse" id="cp1">
			<path d="m0.48 15.85h20.02v8.83h-20.02z"/>
		</clipPath>
	</defs>
	<style>
		.s0 { fill: #a8c634 } 
	</style>
	<g id="Clip-Path" clip-path="url(#cp1)">
		<g id="Layer">
			<path id="Layer" fill-rule="evenodd" class="s0" d="m10.5 24.7c-2.5 0-10 0-10-4.4 0-4 5.7-4.4 10-4.4 2.5 0 10 0 10 4.4 0 3.9-5.7 4.4-10 4.4zm0-7c-5.4 0-8.1 0.8-8.1 2.6 0 1.7 2.7 2.6 8.1 2.6 5.4 0 8.1-0.9 8.1-2.6 0-1.8-2.7-2.6-8.1-2.6z"/>
		</g>
	</g>
	<path id="Layer" fill-rule="evenodd" class="s0" d="m10.5 13.7c-1.9 0-3.5-0.7-4.8-1.9-1.3-1.2-2-2.8-2-4.5 0-3.6 3.1-6.4 6.8-6.4 3.7 0 6.7 2.8 6.7 6.4 0 3.5-3 6.4-6.7 6.4zm0-11c-2.7 0-4.9 2-4.9 4.6 0 1.2 0.5 2.3 1.4 3.2 1 0.9 2.2 1.3 3.5 1.4v0.9-0.9c2.7 0 4.8-2.1 4.8-4.6 0-2.6-2.1-4.6-4.8-4.6z"/>
	<path id="Layer" fill-rule="evenodd" class="s0" d="m22.3 14.6c-0.5 0-0.9-0.4-0.9-0.9v-4.8c0-0.5 0.4-0.9 0.9-0.9 0.6 0 1 0.4 1 0.9v4.8c0 0.5-0.4 0.9-1 0.9z"/>
	<path id="Layer" fill-rule="evenodd" class="s0" d="m24.9 12.2h-5.2c-0.5 0-0.9-0.4-0.9-0.9 0-0.5 0.4-0.9 0.9-0.9h5.2c0.6 0 1 0.4 1 0.9 0 0.5-0.4 0.9-1 0.9z"/>
</svg>