<svg xmlns="http://www.w3.org/2000/svg" width="26" height="25" viewBox="0 0 26 25" fill="none">
<mask id="mask0_87_1071" style="mask-type:alpha" maskUnits="userSpaceOnUse" x="0" y="15" width="21" height="10">
<path fill-rule="evenodd" clip-rule="evenodd" d="M0.477356 15.8505H20.5029V24.6844H0.477356V15.8505Z" fill="white"/>
</mask>
<g mask="url(#mask0_87_1071)">
<path fill-rule="evenodd" clip-rule="evenodd" d="M10.4901 17.6561C5.11192 17.6561 2.38406 18.5311 2.38406 20.2548C2.38406 21.9954 5.11192 22.8789 10.4901 22.8789C15.8683 22.8789 18.5961 22.0038 18.5961 20.2813C18.5961 18.5384 15.8683 17.6561 10.4901 17.6561ZM10.4901 24.6845C8.01393 24.6845 0.477356 24.6845 0.477356 20.2548C0.477356 16.3067 6.19112 15.8505 10.4901 15.8505C12.9663 15.8505 20.5029 15.8505 20.5029 20.2813C20.5029 24.2283 14.7891 24.6845 10.4901 24.6845Z" fill="white"/>
</g>
<path fill-rule="evenodd" clip-rule="evenodd" d="M10.49 2.6627C7.81549 2.6627 5.63802 4.72465 5.63802 7.25844C5.63294 8.48502 6.13123 9.63455 7.04009 10.5024C7.95023 11.3691 9.1629 11.8494 10.4544 11.8542L10.49 12.757V11.8542C13.1657 11.8542 15.3432 9.79224 15.3432 7.25844C15.3432 4.72465 13.1657 2.6627 10.49 2.6627ZM10.49 13.6597H10.4506C8.64685 13.6537 6.95624 12.9833 5.68892 11.7747C4.42032 10.565 3.72501 8.95928 3.73137 7.25483C3.73137 3.72918 6.76302 0.857147 10.49 0.857147C14.2182 0.857147 17.2499 3.72918 17.2499 7.25844C17.2499 10.7877 14.2182 13.6597 10.49 13.6597Z" fill="white"/>
<path fill-rule="evenodd" clip-rule="evenodd" d="M22.3461 14.6151C21.8199 14.6151 21.3928 14.2107 21.3928 13.7123V8.88428C21.3928 8.38595 21.8199 7.98151 22.3461 7.98151C22.8723 7.98151 23.2994 8.38595 23.2994 8.88428V13.7123C23.2994 14.2107 22.8723 14.6151 22.3461 14.6151Z" fill="white"/>
<path fill-rule="evenodd" clip-rule="evenodd" d="M24.9467 12.2006H19.7478C19.2215 12.2006 18.7944 11.7962 18.7944 11.2978C18.7944 10.7995 19.2215 10.3951 19.7478 10.3951H24.9467C25.473 10.3951 25.9001 10.7995 25.9001 11.2978C25.9001 11.7962 25.473 12.2006 24.9467 12.2006Z" fill="white"/>
</svg>