<svg xmlns="http://www.w3.org/2000/svg" width="28" height="24" viewBox="0 0 28 24" fill="none">
<path fill-rule="evenodd" clip-rule="evenodd" d="M26.6245 13.8778H1.47681C0.981038 13.8778 0.578674 13.4785 0.578674 12.9864C0.578674 12.4943 0.981038 12.095 1.47681 12.095H26.6245C27.1203 12.095 27.5227 12.4943 27.5227 12.9864C27.5227 13.4785 27.1203 13.8778 26.6245 13.8778" fill="#A8C634"/>
<path fill-rule="evenodd" clip-rule="evenodd" d="M24.3851 8.87406C23.8893 8.87406 23.4869 8.4747 23.4869 7.98263V6.18314C23.4869 4.23031 21.8847 2.64 19.9147 2.64H18.4717C17.976 2.64 17.5736 2.24064 17.5736 1.74858C17.5736 1.25651 17.976 0.857147 18.4717 0.857147H19.9147C22.875 0.857147 25.2832 3.24736 25.2832 6.18314V7.98263C25.2832 8.4747 24.8808 8.87406 24.3851 8.87406" fill="#A8C634"/>
<path fill-rule="evenodd" clip-rule="evenodd" d="M3.71631 8.87406C3.22054 8.87406 2.81818 8.4747 2.81818 7.98263V6.18314C2.81818 3.24736 5.22637 0.857147 8.18662 0.857147H9.66675C10.1625 0.857147 10.5649 1.25651 10.5649 1.74858C10.5649 2.24064 10.1625 2.64 9.66675 2.64H8.18662C6.21671 2.64 4.61444 4.23031 4.61444 6.18314V7.98263C4.61444 8.4747 4.21208 8.87406 3.71631 8.87406" fill="#A8C634"/>
<path fill-rule="evenodd" clip-rule="evenodd" d="M19.9149 23.1554H18.4719C17.9761 23.1554 17.5737 22.7561 17.5737 22.264C17.5737 21.772 17.9761 21.3726 18.4719 21.3726H19.9149C21.8848 21.3726 23.487 19.7823 23.487 17.8283V12.9848C23.487 12.4928 23.8894 12.0934 24.3852 12.0934C24.8809 12.0934 25.2833 12.4928 25.2833 12.9848V17.8283C25.2833 20.7652 22.8751 23.1554 19.9149 23.1554" fill="#A8C634"/>
<path fill-rule="evenodd" clip-rule="evenodd" d="M9.66643 23.1554H8.18631C5.22606 23.1554 2.81787 20.7652 2.81787 17.8283V12.9848C2.81787 12.4928 3.22023 12.0934 3.716 12.0934C4.21177 12.0934 4.61414 12.4928 4.61414 12.9848V17.8283C4.61414 19.7823 6.2164 21.3726 8.18631 21.3726H9.66643C10.1622 21.3726 10.5646 21.772 10.5646 22.264C10.5646 22.7561 10.1622 23.1554 9.66643 23.1554" fill="#A8C634"/>
</svg>