<svg width="25" height="27" viewBox="0 0 25 27" fill="none" xmlns="http://www.w3.org/2000/svg">
<path fill-rule="evenodd" clip-rule="evenodd" d="M14.2887 17.6105C15.757 17.6105 16.9522 18.8095 16.9522 20.2833V24.0738C16.9522 24.3905 17.2034 24.6443 17.5254 24.6517H19.8498C21.6815 24.6517 23.1705 23.1656 23.1705 21.3394V10.5891C23.162 9.9606 22.8656 9.3691 22.3571 8.97601L14.3168 2.49673C13.2375 1.6329 11.7277 1.6329 10.6448 2.49919L2.65935 8.97355C2.1313 9.37896 1.83496 9.97045 1.82886 10.61V21.3394C1.82886 23.1656 3.3179 24.6517 5.14962 24.6517H7.49599C7.82648 24.6517 8.09477 24.3868 8.09477 24.0615C8.09477 23.99 8.10331 23.9185 8.11794 23.8508V20.2833C8.11794 18.8182 9.30576 17.6204 10.7631 17.6105H14.2887ZM19.85 26.5002H17.5036C16.1597 26.4681 15.1231 25.4022 15.1231 24.0738V20.2833C15.1231 19.8286 14.7487 19.459 14.2889 19.459H10.7694C10.3194 19.4614 9.94741 19.8323 9.94741 20.2833V24.0615C9.94741 24.1539 9.93522 24.2426 9.90961 24.3264C9.7779 25.5464 8.74618 26.5002 7.49617 26.5002H5.14981C2.30953 26.5002 -0.000244141 24.1847 -0.000244141 21.3394V10.6014C0.0119511 9.37651 0.570493 8.25514 1.53514 7.51701L9.50473 1.05375C11.2596 -0.351042 13.7048 -0.351042 15.456 1.05128L23.4829 7.52071C24.4256 8.24652 24.9841 9.36542 25 10.5755V21.3394C25 24.1847 22.6902 26.5002 19.85 26.5002V26.5002Z" fill="#A8C634"/>
</svg>
