<svg width="25" height="25" viewBox="0 0 25 25" fill="none" xmlns="http://www.w3.org/2000/svg">
<path fill-rule="evenodd" clip-rule="evenodd" d="M5.44874 1.92309C1.9231 1.92309 1.9231 2.18975 1.9231 5.44873V5.48078C1.9231 6.90001 1.9231 7.92565 2.27053 8.35898C2.61028 8.7795 3.61925 8.97437 5.44874 8.97437C7.27822 8.97437 8.2872 8.77821 8.62694 8.3577C8.97438 7.92565 8.97438 6.90001 8.97438 5.4795C8.97438 2.18975 8.97438 1.92309 5.44874 1.92309M5.44872 10.8974C3.28718 10.8974 1.66538 10.6705 0.774359 9.5641C0 8.60385 0 7.29359 0 5.48077L0.961538 5.44872H0C0 1.76923 0.232052 0 5.44872 0C10.6654 0 10.8974 1.76923 10.8974 5.44872C10.8974 7.29231 10.8974 8.60385 10.1231 9.5641C9.23205 10.6705 7.61026 10.8974 5.44872 10.8974" fill="white"/>
<path fill-rule="evenodd" clip-rule="evenodd" d="M19.5513 1.92309C16.0256 1.92309 16.0256 2.18975 16.0256 5.44873V5.48078C16.0256 6.90001 16.0256 7.92565 16.3731 8.35898C16.7128 8.7795 17.7218 8.97437 19.5513 8.97437C21.3808 8.97437 22.3897 8.77821 22.7295 8.3577C23.0769 7.92565 23.0769 6.90001 23.0769 5.4795C23.0769 2.18975 23.0769 1.92309 19.5513 1.92309M19.5513 10.8974C17.3897 10.8974 15.7679 10.6705 14.8769 9.5641C14.1025 8.60385 14.1025 7.29359 14.1025 5.48077L15.0641 5.44872H14.1025C14.1025 1.76923 14.3346 0 19.5513 0C24.7679 0 25 1.76923 25 5.44872C25 7.29231 25 8.60385 24.2256 9.5641C23.3346 10.6705 21.7128 10.8974 19.5513 10.8974" fill="white"/>
<path fill-rule="evenodd" clip-rule="evenodd" d="M5.44874 16.0256C1.9231 16.0256 1.9231 16.2923 1.9231 19.5513V19.5833C1.9231 21.0026 1.9231 22.0282 2.27053 22.4615C2.61028 22.882 3.61925 23.0769 5.44874 23.0769C7.27822 23.0769 8.2872 22.8808 8.62694 22.4602C8.97438 22.0282 8.97438 21.0026 8.97438 19.582C8.97438 16.2923 8.97438 16.0256 5.44874 16.0256M5.44872 25C3.28718 25 1.66538 24.7731 0.774359 23.6667C0 22.7064 0 21.3962 0 19.5833L0.961538 19.5513H0C0 15.8718 0.232052 14.1026 5.44872 14.1026C10.6654 14.1026 10.8974 15.8718 10.8974 19.5513C10.8974 21.3949 10.8974 22.7064 10.1231 23.6667C9.23205 24.7731 7.61026 25 5.44872 25" fill="white"/>
<path fill-rule="evenodd" clip-rule="evenodd" d="M19.5513 16.0256C16.0256 16.0256 16.0256 16.2923 16.0256 19.5513V19.5833C16.0256 21.0026 16.0256 22.0282 16.3731 22.4615C16.7128 22.882 17.7218 23.0769 19.5513 23.0769C21.3808 23.0769 22.3897 22.8808 22.7295 22.4602C23.0769 22.0282 23.0769 21.0026 23.0769 19.582C23.0769 16.2923 23.0769 16.0256 19.5513 16.0256M19.5513 25C17.3897 25 15.7679 24.7731 14.8769 23.6667C14.1025 22.7064 14.1025 21.3962 14.1025 19.5833L15.0641 19.5513H14.1025C14.1025 15.8718 14.3346 14.1026 19.5513 14.1026C24.7679 14.1026 25 15.8718 25 19.5513C25 21.3949 25 22.7064 24.2256 23.6667C23.3346 24.7731 21.7128 25 19.5513 25" fill="white"/>
</svg>
