<svg width="26" height="25" viewBox="0 0 26 25" fill="none" xmlns="http://www.w3.org/2000/svg">
<path fill-rule="evenodd" clip-rule="evenodd" d="M12.9951 19.3339C12.4569 19.3339 12.02 18.9128 12.02 18.394V15.2144C12.02 14.6955 12.4569 14.2744 12.9951 14.2744C13.5334 14.2744 13.9703 14.6955 13.9703 15.2144V18.394C13.9703 18.9128 13.5334 19.3339 12.9951 19.3339" fill="#A8C634"/>
<mask id="mask0_2982_178" style="mask-type:alpha" maskUnits="userSpaceOnUse" x="0" y="3" width="26" height="14">
<path fill-rule="evenodd" clip-rule="evenodd" d="M0 3.23325H25.99V16.1559H0V3.23325Z" fill="white"/>
</mask>
<g mask="url(#mask0_2982_178)">
<path fill-rule="evenodd" clip-rule="evenodd" d="M1.9502 11.7719C5.03938 13.3899 8.93467 14.276 12.9886 14.276C17.0503 14.276 20.9495 13.3899 24.04 11.7719V8.00955C24.04 6.4116 22.6995 5.11319 21.0496 5.11319H4.95357C3.29716 5.11319 1.9502 6.40659 1.9502 7.99702V11.7719ZM12.9886 16.1559C8.37955 16.1559 3.93689 15.0806 0.482361 13.1305C0.183323 12.9626 0 12.6542 0 12.3196V7.99701C0 5.37011 2.22198 3.23325 4.95362 3.23325H21.0496C23.7748 3.23325 25.9903 5.37512 25.9903 8.00954V12.3196C25.9903 12.6542 25.8056 12.9626 25.5079 13.1305C22.0534 15.0806 17.6068 16.1559 12.9886 16.1559V16.1559Z" fill="#A8C634"/>
</g>
<mask id="mask1_2982_178" style="mask-type:alpha" maskUnits="userSpaceOnUse" x="7" y="0" width="12" height="6">
<path fill-rule="evenodd" clip-rule="evenodd" d="M7.46924 0H18.5206V5.1083H7.46924V0Z" fill="white"/>
</mask>
<g mask="url(#mask1_2982_178)">
<path fill-rule="evenodd" clip-rule="evenodd" d="M17.5455 5.10833C17.0072 5.10833 16.5704 4.68722 16.5704 4.16836V3.70966C16.5704 2.70075 15.7188 1.87985 14.6721 1.87985H11.3177C10.2711 1.87985 9.41948 2.70075 9.41948 3.70966V4.16836C9.41948 4.68722 8.98263 5.10833 8.44436 5.10833C7.90609 5.10833 7.46924 4.68722 7.46924 4.16836V3.70966C7.46924 1.66428 9.19586 -9.15527e-05 11.3177 -9.15527e-05H14.6721C16.794 -9.15527e-05 18.5206 1.66428 18.5206 3.70966V4.16836C18.5206 4.68722 18.0838 5.10833 17.5455 5.10833" fill="#A8C634"/>
</g>
<path fill-rule="evenodd" clip-rule="evenodd" d="M20.5358 24.74H5.45392C2.75608 24.74 0.484696 22.7084 0.280571 20.1141L0.0335396 16.9696C-0.00676549 16.452 0.396285 15.9995 0.933252 15.9607C1.47282 15.9419 1.93828 16.3091 1.97988 16.828L2.22561 19.9712C2.35303 21.5905 3.77021 22.8601 5.45392 22.8601H20.5358C22.2195 22.8601 23.638 21.5905 23.7641 19.9712L24.0111 16.828C24.0528 16.3091 24.5299 15.9406 25.0578 15.9607C25.5947 15.9995 25.9965 16.452 25.9562 16.9696L25.7092 20.1141C25.505 22.7084 23.2337 24.74 20.5358 24.74" fill="#A8C634"/>
</svg>
