<svg width="28" height="25" viewBox="0 0 28 25" fill="none" xmlns="http://www.w3.org/2000/svg">
<path fill-rule="evenodd" clip-rule="evenodd" d="M26.9825 16.8149H21.4907C18.9171 16.8149 16.8224 14.803 16.821 12.3307C16.821 9.85587 18.9158 7.84261 21.4907 7.84131H26.9825C27.5442 7.84131 28.0001 8.27943 28.0001 8.81925C28.0001 9.35908 27.5442 9.79719 26.9825 9.79719H21.4907C20.0377 9.7985 18.8561 10.9342 18.8561 12.3294C18.8561 13.7233 20.0391 14.859 21.4907 14.859H26.9825C27.5442 14.859 28.0001 15.2971 28.0001 15.837C28.0001 16.3768 27.5442 16.8149 26.9825 16.8149" fill="white"/>
<path fill-rule="evenodd" clip-rule="evenodd" d="M22.1114 13.2265H21.6882C21.1265 13.2265 20.6707 12.7884 20.6707 12.2486C20.6707 11.7087 21.1265 11.2706 21.6882 11.2706H22.1114C22.6731 11.2706 23.129 11.7087 23.129 12.2486C23.129 12.7884 22.6731 13.2265 22.1114 13.2265" fill="white"/>
<mask id="mask0_2982_151" style="mask-type:alpha" maskUnits="userSpaceOnUse" x="0" y="0" width="28" height="25">
<path fill-rule="evenodd" clip-rule="evenodd" d="M0 0H27.9999V25H0V0Z" fill="white"/>
</mask>
<g mask="url(#mask0_2982_151)">
<path fill-rule="evenodd" clip-rule="evenodd" d="M8.13675 1.95589C4.7722 1.95589 2.03442 4.58721 2.03442 7.82094V17.1792C2.03442 20.4129 4.7722 23.0443 8.13675 23.0443H19.8639C23.2284 23.0443 25.9648 20.4129 25.9648 17.1792V7.82094C25.9648 4.58721 23.2284 1.95589 19.8639 1.95589H8.13675ZM19.864 25.0001H8.13685C3.65033 25.0001 -0.000488281 21.4913 -0.000488281 17.1792V7.82094C-0.000488281 3.50756 3.65033 0 8.13685 0H19.864C24.3505 0 27.9999 3.50756 27.9999 7.82094V17.1792C27.9999 21.4913 24.3505 25.0001 19.864 25.0001V25.0001Z" fill="white"/>
</g>
<path fill-rule="evenodd" clip-rule="evenodd" d="M14.4955 7.87321H7.17083C6.60916 7.87321 6.15332 7.4351 6.15332 6.89527C6.15332 6.35545 6.60916 5.91733 7.17083 5.91733H14.4955C15.0572 5.91733 15.513 6.35545 15.513 6.89527C15.513 7.4351 15.0572 7.87321 14.4955 7.87321" fill="white"/>
</svg>
